<mxfile host="app.diagrams.net" modified="2020-08-01T11:11:48.954Z" agent="5.0 (Windows NT 10.0; Win64; x64) AppleWebKit/537.36 (KHTML, like Gecko) Chrome/84.0.4147.105 Safari/537.36" etag="hk4p20RXp1VL3s7_QJpJ" version="13.5.8" type="github">
  <diagram id="C5RBs43oDa-KdzZeNtuy" name="Page-1">
    <mxGraphModel dx="2031" dy="1134" grid="1" gridSize="10" guides="1" tooltips="1" connect="1" arrows="1" fold="1" page="1" pageScale="1" pageWidth="827" pageHeight="1169" math="0" shadow="0">
      <root>
        <object label="" id="WIyWlLk6GJQsqaUBKTNV-0">
          <mxCell />
        </object>
        <mxCell id="WIyWlLk6GJQsqaUBKTNV-1" parent="WIyWlLk6GJQsqaUBKTNV-0" />
        <mxCell id="tuNQhOMpHqH_E0YNH1Yw-140" style="edgeStyle=orthogonalEdgeStyle;rounded=0;orthogonalLoop=1;jettySize=auto;html=1;exitX=0.5;exitY=0.5;exitDx=0;exitDy=0;exitPerimeter=0;entryX=1;entryY=0;entryDx=0;entryDy=0;fillColor=#e51400;strokeColor=#B20000;" edge="1" parent="WIyWlLk6GJQsqaUBKTNV-1" source="tuNQhOMpHqH_E0YNH1Yw-69" target="tuNQhOMpHqH_E0YNH1Yw-99">
          <mxGeometry relative="1" as="geometry" />
        </mxCell>
        <mxCell id="tuNQhOMpHqH_E0YNH1Yw-144" style="edgeStyle=orthogonalEdgeStyle;rounded=0;orthogonalLoop=1;jettySize=auto;html=1;exitX=1;exitY=1;exitDx=0;exitDy=0;exitPerimeter=0;entryX=0.5;entryY=0;entryDx=0;entryDy=0;fillColor=#e51400;strokeColor=#B20000;" edge="1" parent="WIyWlLk6GJQsqaUBKTNV-1" source="tuNQhOMpHqH_E0YNH1Yw-69" target="tuNQhOMpHqH_E0YNH1Yw-142">
          <mxGeometry relative="1" as="geometry" />
        </mxCell>
        <mxCell id="tuNQhOMpHqH_E0YNH1Yw-69" value="관리자&lt;br&gt;" style="shape=umlActor;verticalLabelPosition=bottom;verticalAlign=top;html=1;outlineConnect=0;fillColor=#e51400;strokeColor=#B20000;fontColor=#ffffff;" vertex="1" parent="WIyWlLk6GJQsqaUBKTNV-1">
          <mxGeometry x="760" y="80" width="40" height="80" as="geometry" />
        </mxCell>
        <mxCell id="tuNQhOMpHqH_E0YNH1Yw-123" style="edgeStyle=orthogonalEdgeStyle;rounded=0;orthogonalLoop=1;jettySize=auto;html=1;exitX=0.5;exitY=0.5;exitDx=0;exitDy=0;exitPerimeter=0;entryX=0;entryY=0.5;entryDx=0;entryDy=0;fillColor=#0050ef;strokeColor=#001DBC;" edge="1" parent="WIyWlLk6GJQsqaUBKTNV-1" source="tuNQhOMpHqH_E0YNH1Yw-71" target="tuNQhOMpHqH_E0YNH1Yw-99">
          <mxGeometry relative="1" as="geometry" />
        </mxCell>
        <mxCell id="tuNQhOMpHqH_E0YNH1Yw-71" value="방범대원" style="shape=umlActor;verticalLabelPosition=bottom;verticalAlign=top;html=1;outlineConnect=0;fillColor=#0050ef;strokeColor=#001DBC;fontColor=#ffffff;" vertex="1" parent="WIyWlLk6GJQsqaUBKTNV-1">
          <mxGeometry x="40" y="80" width="40" height="80" as="geometry" />
        </mxCell>
        <mxCell id="tuNQhOMpHqH_E0YNH1Yw-85" style="edgeStyle=orthogonalEdgeStyle;rounded=0;orthogonalLoop=1;jettySize=auto;html=1;exitX=0.5;exitY=0;exitDx=0;exitDy=0;exitPerimeter=0;entryX=0.5;entryY=1;entryDx=0;entryDy=0;" edge="1" parent="WIyWlLk6GJQsqaUBKTNV-1" source="tuNQhOMpHqH_E0YNH1Yw-72" target="tuNQhOMpHqH_E0YNH1Yw-76">
          <mxGeometry relative="1" as="geometry" />
        </mxCell>
        <mxCell id="tuNQhOMpHqH_E0YNH1Yw-97" style="edgeStyle=orthogonalEdgeStyle;rounded=0;orthogonalLoop=1;jettySize=auto;html=1;exitX=0.25;exitY=0.1;exitDx=0;exitDy=0;exitPerimeter=0;entryX=1;entryY=0.5;entryDx=0;entryDy=0;" edge="1" parent="WIyWlLk6GJQsqaUBKTNV-1" source="tuNQhOMpHqH_E0YNH1Yw-72" target="tuNQhOMpHqH_E0YNH1Yw-77">
          <mxGeometry relative="1" as="geometry" />
        </mxCell>
        <mxCell id="tuNQhOMpHqH_E0YNH1Yw-72" value="일반회원" style="shape=umlActor;verticalLabelPosition=bottom;verticalAlign=top;html=1;outlineConnect=0;strokeColor=#314354;fillColor=#647687;fontColor=#ffffff;" vertex="1" parent="WIyWlLk6GJQsqaUBKTNV-1">
          <mxGeometry x="398.5" y="1040" width="41" height="80" as="geometry" />
        </mxCell>
        <mxCell id="tuNQhOMpHqH_E0YNH1Yw-88" style="edgeStyle=orthogonalEdgeStyle;rounded=0;orthogonalLoop=1;jettySize=auto;html=1;exitX=0.5;exitY=0;exitDx=0;exitDy=0;" edge="1" parent="WIyWlLk6GJQsqaUBKTNV-1" source="tuNQhOMpHqH_E0YNH1Yw-76" target="tuNQhOMpHqH_E0YNH1Yw-79">
          <mxGeometry relative="1" as="geometry" />
        </mxCell>
        <mxCell id="tuNQhOMpHqH_E0YNH1Yw-89" style="edgeStyle=orthogonalEdgeStyle;rounded=0;orthogonalLoop=1;jettySize=auto;html=1;exitX=0;exitY=0.5;exitDx=0;exitDy=0;entryX=0.5;entryY=1;entryDx=0;entryDy=0;" edge="1" parent="WIyWlLk6GJQsqaUBKTNV-1" source="tuNQhOMpHqH_E0YNH1Yw-76" target="tuNQhOMpHqH_E0YNH1Yw-81">
          <mxGeometry relative="1" as="geometry" />
        </mxCell>
        <mxCell id="tuNQhOMpHqH_E0YNH1Yw-90" style="edgeStyle=orthogonalEdgeStyle;rounded=0;orthogonalLoop=1;jettySize=auto;html=1;exitX=0;exitY=0;exitDx=0;exitDy=0;entryX=0.5;entryY=1;entryDx=0;entryDy=0;" edge="1" parent="WIyWlLk6GJQsqaUBKTNV-1" source="tuNQhOMpHqH_E0YNH1Yw-76" target="tuNQhOMpHqH_E0YNH1Yw-80">
          <mxGeometry relative="1" as="geometry" />
        </mxCell>
        <mxCell id="tuNQhOMpHqH_E0YNH1Yw-94" style="edgeStyle=orthogonalEdgeStyle;rounded=0;orthogonalLoop=1;jettySize=auto;html=1;exitX=1;exitY=0;exitDx=0;exitDy=0;entryX=0.5;entryY=1;entryDx=0;entryDy=0;" edge="1" parent="WIyWlLk6GJQsqaUBKTNV-1" source="tuNQhOMpHqH_E0YNH1Yw-76" target="tuNQhOMpHqH_E0YNH1Yw-82">
          <mxGeometry relative="1" as="geometry" />
        </mxCell>
        <mxCell id="tuNQhOMpHqH_E0YNH1Yw-95" style="edgeStyle=orthogonalEdgeStyle;rounded=0;orthogonalLoop=1;jettySize=auto;html=1;exitX=1;exitY=0.5;exitDx=0;exitDy=0;entryX=0.5;entryY=1;entryDx=0;entryDy=0;" edge="1" parent="WIyWlLk6GJQsqaUBKTNV-1" source="tuNQhOMpHqH_E0YNH1Yw-76" target="tuNQhOMpHqH_E0YNH1Yw-83">
          <mxGeometry relative="1" as="geometry" />
        </mxCell>
        <mxCell id="tuNQhOMpHqH_E0YNH1Yw-108" style="edgeStyle=orthogonalEdgeStyle;rounded=0;orthogonalLoop=1;jettySize=auto;html=1;exitX=1;exitY=1;exitDx=0;exitDy=0;entryX=0;entryY=0.5;entryDx=0;entryDy=0;" edge="1" parent="WIyWlLk6GJQsqaUBKTNV-1" source="tuNQhOMpHqH_E0YNH1Yw-76" target="tuNQhOMpHqH_E0YNH1Yw-107">
          <mxGeometry relative="1" as="geometry" />
        </mxCell>
        <mxCell id="tuNQhOMpHqH_E0YNH1Yw-76" value="로그인" style="ellipse;whiteSpace=wrap;html=1;aspect=fixed;" vertex="1" parent="WIyWlLk6GJQsqaUBKTNV-1">
          <mxGeometry x="379" y="920" width="80" height="80" as="geometry" />
        </mxCell>
        <mxCell id="tuNQhOMpHqH_E0YNH1Yw-77" value="회원가입" style="ellipse;whiteSpace=wrap;html=1;aspect=fixed;" vertex="1" parent="WIyWlLk6GJQsqaUBKTNV-1">
          <mxGeometry x="239.5" y="1040" width="80" height="80" as="geometry" />
        </mxCell>
        <mxCell id="tuNQhOMpHqH_E0YNH1Yw-138" style="edgeStyle=orthogonalEdgeStyle;rounded=0;orthogonalLoop=1;jettySize=auto;html=1;exitX=0.5;exitY=0;exitDx=0;exitDy=0;entryX=0.5;entryY=1;entryDx=0;entryDy=0;" edge="1" parent="WIyWlLk6GJQsqaUBKTNV-1" source="tuNQhOMpHqH_E0YNH1Yw-79" target="tuNQhOMpHqH_E0YNH1Yw-116">
          <mxGeometry relative="1" as="geometry" />
        </mxCell>
        <mxCell id="tuNQhOMpHqH_E0YNH1Yw-79" value="미아신고" style="ellipse;whiteSpace=wrap;html=1;aspect=fixed;" vertex="1" parent="WIyWlLk6GJQsqaUBKTNV-1">
          <mxGeometry x="379" y="760" width="80" height="80" as="geometry" />
        </mxCell>
        <mxCell id="tuNQhOMpHqH_E0YNH1Yw-137" style="edgeStyle=orthogonalEdgeStyle;rounded=0;orthogonalLoop=1;jettySize=auto;html=1;exitX=0.5;exitY=0;exitDx=0;exitDy=0;entryX=0.5;entryY=1;entryDx=0;entryDy=0;" edge="1" parent="WIyWlLk6GJQsqaUBKTNV-1" source="tuNQhOMpHqH_E0YNH1Yw-80" target="tuNQhOMpHqH_E0YNH1Yw-115">
          <mxGeometry relative="1" as="geometry" />
        </mxCell>
        <mxCell id="tuNQhOMpHqH_E0YNH1Yw-80" value="순찰요청" style="ellipse;whiteSpace=wrap;html=1;aspect=fixed;" vertex="1" parent="WIyWlLk6GJQsqaUBKTNV-1">
          <mxGeometry x="239.5" y="760" width="80" height="80" as="geometry" />
        </mxCell>
        <mxCell id="tuNQhOMpHqH_E0YNH1Yw-81" value="방범대 위치&lt;br&gt;조회" style="ellipse;whiteSpace=wrap;html=1;aspect=fixed;" vertex="1" parent="WIyWlLk6GJQsqaUBKTNV-1">
          <mxGeometry x="119.5" y="760" width="80" height="80" as="geometry" />
        </mxCell>
        <mxCell id="tuNQhOMpHqH_E0YNH1Yw-82" value="마이페이지" style="ellipse;whiteSpace=wrap;html=1;aspect=fixed;" vertex="1" parent="WIyWlLk6GJQsqaUBKTNV-1">
          <mxGeometry x="520" y="520" width="80" height="80" as="geometry" />
        </mxCell>
        <mxCell id="tuNQhOMpHqH_E0YNH1Yw-147" style="edgeStyle=orthogonalEdgeStyle;rounded=0;orthogonalLoop=1;jettySize=auto;html=1;exitX=0.5;exitY=0;exitDx=0;exitDy=0;entryX=0.5;entryY=1;entryDx=0;entryDy=0;" edge="1" parent="WIyWlLk6GJQsqaUBKTNV-1" source="tuNQhOMpHqH_E0YNH1Yw-83" target="tuNQhOMpHqH_E0YNH1Yw-146">
          <mxGeometry relative="1" as="geometry" />
        </mxCell>
        <mxCell id="tuNQhOMpHqH_E0YNH1Yw-83" value="방범대 가입&lt;br&gt;신청" style="ellipse;whiteSpace=wrap;html=1;aspect=fixed;" vertex="1" parent="WIyWlLk6GJQsqaUBKTNV-1">
          <mxGeometry x="639.5" y="760" width="80" height="80" as="geometry" />
        </mxCell>
        <mxCell id="tuNQhOMpHqH_E0YNH1Yw-124" style="edgeStyle=orthogonalEdgeStyle;rounded=0;orthogonalLoop=1;jettySize=auto;html=1;exitX=0;exitY=0;exitDx=0;exitDy=0;entryX=0.5;entryY=1;entryDx=0;entryDy=0;fillColor=#0050ef;strokeColor=#001DBC;" edge="1" parent="WIyWlLk6GJQsqaUBKTNV-1" source="tuNQhOMpHqH_E0YNH1Yw-99" target="tuNQhOMpHqH_E0YNH1Yw-110">
          <mxGeometry relative="1" as="geometry" />
        </mxCell>
        <mxCell id="tuNQhOMpHqH_E0YNH1Yw-141" style="edgeStyle=orthogonalEdgeStyle;rounded=0;orthogonalLoop=1;jettySize=auto;html=1;exitX=1;exitY=1;exitDx=0;exitDy=0;entryX=0.5;entryY=0;entryDx=0;entryDy=0;fillColor=#0050ef;strokeColor=#001DBC;" edge="1" parent="WIyWlLk6GJQsqaUBKTNV-1" source="tuNQhOMpHqH_E0YNH1Yw-99" target="tuNQhOMpHqH_E0YNH1Yw-82">
          <mxGeometry relative="1" as="geometry" />
        </mxCell>
        <mxCell id="tuNQhOMpHqH_E0YNH1Yw-150" style="edgeStyle=orthogonalEdgeStyle;rounded=0;orthogonalLoop=1;jettySize=auto;html=1;exitX=0;exitY=1;exitDx=0;exitDy=0;entryX=0.5;entryY=0;entryDx=0;entryDy=0;fillColor=#0050ef;strokeColor=#001DBC;" edge="1" parent="WIyWlLk6GJQsqaUBKTNV-1" source="tuNQhOMpHqH_E0YNH1Yw-99" target="tuNQhOMpHqH_E0YNH1Yw-149">
          <mxGeometry relative="1" as="geometry" />
        </mxCell>
        <mxCell id="tuNQhOMpHqH_E0YNH1Yw-151" style="edgeStyle=orthogonalEdgeStyle;rounded=0;orthogonalLoop=1;jettySize=auto;html=1;exitX=0.5;exitY=1;exitDx=0;exitDy=0;entryX=0.5;entryY=0;entryDx=0;entryDy=0;fillColor=#0050ef;strokeColor=#001DBC;" edge="1" parent="WIyWlLk6GJQsqaUBKTNV-1" source="tuNQhOMpHqH_E0YNH1Yw-99" target="tuNQhOMpHqH_E0YNH1Yw-126">
          <mxGeometry relative="1" as="geometry" />
        </mxCell>
        <mxCell id="tuNQhOMpHqH_E0YNH1Yw-99" value="로그인" style="ellipse;whiteSpace=wrap;html=1;aspect=fixed;" vertex="1" parent="WIyWlLk6GJQsqaUBKTNV-1">
          <mxGeometry x="379" y="130" width="80" height="80" as="geometry" />
        </mxCell>
        <mxCell id="tuNQhOMpHqH_E0YNH1Yw-107" value="로그아웃" style="ellipse;whiteSpace=wrap;html=1;" vertex="1" parent="WIyWlLk6GJQsqaUBKTNV-1">
          <mxGeometry x="539.5" y="1000" width="140" height="40" as="geometry" />
        </mxCell>
        <mxCell id="tuNQhOMpHqH_E0YNH1Yw-110" value="로그아웃" style="ellipse;whiteSpace=wrap;html=1;" vertex="1" parent="WIyWlLk6GJQsqaUBKTNV-1">
          <mxGeometry x="230" y="80" width="140" height="40" as="geometry" />
        </mxCell>
        <mxCell id="tuNQhOMpHqH_E0YNH1Yw-115" value="순찰 요청&lt;br&gt;기록" style="ellipse;whiteSpace=wrap;html=1;aspect=fixed;" vertex="1" parent="WIyWlLk6GJQsqaUBKTNV-1">
          <mxGeometry x="239.5" y="600" width="80" height="80" as="geometry" />
        </mxCell>
        <mxCell id="tuNQhOMpHqH_E0YNH1Yw-116" value="미아 신고&lt;br&gt;기록" style="ellipse;whiteSpace=wrap;html=1;aspect=fixed;" vertex="1" parent="WIyWlLk6GJQsqaUBKTNV-1">
          <mxGeometry x="379" y="600" width="80" height="80" as="geometry" />
        </mxCell>
        <mxCell id="tuNQhOMpHqH_E0YNH1Yw-128" style="edgeStyle=orthogonalEdgeStyle;rounded=0;orthogonalLoop=1;jettySize=auto;html=1;exitX=0;exitY=1;exitDx=0;exitDy=0;entryX=0.5;entryY=0;entryDx=0;entryDy=0;fillColor=#0050ef;strokeColor=#001DBC;" edge="1" parent="WIyWlLk6GJQsqaUBKTNV-1" source="tuNQhOMpHqH_E0YNH1Yw-126" target="tuNQhOMpHqH_E0YNH1Yw-115">
          <mxGeometry relative="1" as="geometry" />
        </mxCell>
        <mxCell id="tuNQhOMpHqH_E0YNH1Yw-129" style="edgeStyle=orthogonalEdgeStyle;rounded=0;orthogonalLoop=1;jettySize=auto;html=1;exitX=1;exitY=1;exitDx=0;exitDy=0;entryX=0.5;entryY=0;entryDx=0;entryDy=0;fillColor=#0050ef;strokeColor=#001DBC;" edge="1" parent="WIyWlLk6GJQsqaUBKTNV-1" source="tuNQhOMpHqH_E0YNH1Yw-126" target="tuNQhOMpHqH_E0YNH1Yw-116">
          <mxGeometry relative="1" as="geometry" />
        </mxCell>
        <mxCell id="tuNQhOMpHqH_E0YNH1Yw-126" value="접수현황&lt;br&gt;조회" style="ellipse;whiteSpace=wrap;html=1;aspect=fixed;" vertex="1" parent="WIyWlLk6GJQsqaUBKTNV-1">
          <mxGeometry x="299" y="390" width="80" height="80" as="geometry" />
        </mxCell>
        <mxCell id="tuNQhOMpHqH_E0YNH1Yw-148" style="edgeStyle=orthogonalEdgeStyle;rounded=0;orthogonalLoop=1;jettySize=auto;html=1;exitX=0.5;exitY=1;exitDx=0;exitDy=0;entryX=0.5;entryY=0;entryDx=0;entryDy=0;fillColor=#e51400;strokeColor=#B20000;" edge="1" parent="WIyWlLk6GJQsqaUBKTNV-1" source="tuNQhOMpHqH_E0YNH1Yw-142" target="tuNQhOMpHqH_E0YNH1Yw-146">
          <mxGeometry relative="1" as="geometry" />
        </mxCell>
        <mxCell id="tuNQhOMpHqH_E0YNH1Yw-142" value="방범대 가입&lt;br&gt;승인/ 거절" style="ellipse;whiteSpace=wrap;html=1;aspect=fixed;" vertex="1" parent="WIyWlLk6GJQsqaUBKTNV-1">
          <mxGeometry x="719.5" y="440" width="80" height="80" as="geometry" />
        </mxCell>
        <mxCell id="tuNQhOMpHqH_E0YNH1Yw-146" value="방범대 가입&lt;br&gt;대기" style="ellipse;whiteSpace=wrap;html=1;aspect=fixed;" vertex="1" parent="WIyWlLk6GJQsqaUBKTNV-1">
          <mxGeometry x="720" y="600" width="80" height="80" as="geometry" />
        </mxCell>
        <mxCell id="tuNQhOMpHqH_E0YNH1Yw-149" value="순찰루트&lt;br&gt;조회" style="ellipse;whiteSpace=wrap;html=1;aspect=fixed;" vertex="1" parent="WIyWlLk6GJQsqaUBKTNV-1">
          <mxGeometry x="159.5" y="390" width="80" height="80" as="geometry" />
        </mxCell>
        <mxCell id="tuNQhOMpHqH_E0YNH1Yw-154" value="" style="endArrow=classic;html=1;entryX=1;entryY=1;entryDx=0;entryDy=0;entryPerimeter=0;fillColor=#e51400;strokeColor=#B20000;" edge="1" parent="WIyWlLk6GJQsqaUBKTNV-1" target="tuNQhOMpHqH_E0YNH1Yw-71">
          <mxGeometry relative="1" as="geometry">
            <mxPoint x="720" y="479.29" as="sourcePoint" />
            <mxPoint x="50" y="479" as="targetPoint" />
          </mxGeometry>
        </mxCell>
        <mxCell id="tuNQhOMpHqH_E0YNH1Yw-155" value="가입 승인" style="shape=cloud;html=1;outlineConnect=0;" vertex="1" parent="tuNQhOMpHqH_E0YNH1Yw-154">
          <mxGeometry width="110" height="50" relative="1" as="geometry">
            <mxPoint x="9.579999999999998" y="10.15" as="offset" />
          </mxGeometry>
        </mxCell>
        <mxCell id="tuNQhOMpHqH_E0YNH1Yw-157" value="방범대원" style="text;html=1;strokeColor=none;fillColor=none;align=center;verticalAlign=middle;whiteSpace=wrap;rounded=0;" vertex="1" parent="WIyWlLk6GJQsqaUBKTNV-1">
          <mxGeometry x="30" y="50" width="60" height="20" as="geometry" />
        </mxCell>
        <mxCell id="tuNQhOMpHqH_E0YNH1Yw-158" value="관리자" style="text;html=1;strokeColor=none;fillColor=none;align=center;verticalAlign=middle;whiteSpace=wrap;rounded=0;" vertex="1" parent="WIyWlLk6GJQsqaUBKTNV-1">
          <mxGeometry x="755" y="50" width="50" height="20" as="geometry" />
        </mxCell>
        <mxCell id="tuNQhOMpHqH_E0YNH1Yw-159" value="일반 사용자" style="text;html=1;strokeColor=none;fillColor=none;align=center;verticalAlign=middle;whiteSpace=wrap;rounded=0;" vertex="1" parent="WIyWlLk6GJQsqaUBKTNV-1">
          <mxGeometry x="380" y="1130" width="80" height="20" as="geometry" />
        </mxCell>
      </root>
    </mxGraphModel>
  </diagram>
</mxfile>
